<svg xmlns="http://www.w3.org/2000/svg" width="134" height="41" viewBox="0 0 134 41" fill="none"><g id="Group 427320127"><path id="Vector" d="M2.35951 7.23323L24.694 7.23323V15.5862H24.5324L2.29486 15.5862L2.29486 27.0211L0 38.1475L27.0212 38.1475L27.0212 22.8195L27.0212 15.5862V7.23323L27.0212 -6.86646e-05H24.694L2.29486 -6.86646e-05L7.9474 3.17889L2.35951 7.23323Z" fill="#0168F8"></path><g id="Printing &amp; Design"><path d="M31.8023 17.4842V0.905948H37.9886C39.1161 0.905948 40.11 1.11364 40.9705 1.52903C41.8457 1.92957 42.5281 2.52298 43.0177 3.30924C43.5073 4.08067 43.752 5.0227 43.752 6.13534C43.752 7.23314 43.4999 8.17517 42.9955 8.96144C42.5059 9.73286 41.8309 10.3263 40.9705 10.7417C40.11 11.157 39.1161 11.3647 37.9886 11.3647H34.8287V17.4842H31.8023ZM34.8287 8.6944H38.0331C38.582 8.6944 39.0567 8.59056 39.4573 8.38286C39.8578 8.16034 40.1694 7.85622 40.3919 7.4705C40.6144 7.08479 40.7257 6.63973 40.7257 6.13534C40.7257 5.61611 40.6144 5.17106 40.3919 4.80018C40.1694 4.41446 39.8578 4.11776 39.4573 3.91007C39.0567 3.68754 38.582 3.57628 38.0331 3.57628H34.8287V8.6944Z" fill="black"></path><path d="M46.2318 17.4842V0.905948H52.3958C53.5233 0.905948 54.5173 1.11364 55.3777 1.52903C56.253 1.92957 56.9354 2.52298 57.425 3.30924C57.9145 4.08067 58.1593 5.0227 58.1593 6.13534C58.1593 7.27765 57.8848 8.24935 57.3359 9.05045C56.8019 9.85154 56.075 10.445 55.1552 10.8307L58.9604 17.4842H55.5335L51.4612 10.2076L53.4195 11.3647H49.2582V17.4842H46.2318ZM49.2582 8.6944H52.4403C52.9892 8.6944 53.464 8.59056 53.8645 8.38286C54.2651 8.16034 54.5766 7.85622 54.7991 7.4705C55.0217 7.08479 55.1329 6.63973 55.1329 6.13534C55.1329 5.61611 55.0217 5.17106 54.7991 4.80018C54.5766 4.41446 54.2651 4.11776 53.8645 3.91007C53.464 3.68754 52.9892 3.57628 52.4403 3.57628H49.2582V8.6944Z" fill="black"></path><path d="M60.9438 17.4842V0.905948H63.9702V17.4842H60.9438Z" fill="black"></path><path d="M67.159 17.4842V0.905948H69.5177L78.6414 13.1895L77.4175 13.4342V0.905948H80.4438V17.4842H78.0628L69.0727 5.11171L70.1853 4.86693V17.4842H67.159Z" fill="black"></path><path d="M86.5903 17.4842V3.57628H82.2955V0.905948H93.8669V3.57628H89.6389V17.4842H86.5903Z" fill="black"></path><path d="M95.7137 17.4842V0.905948H98.7401V17.4842H95.7137Z" fill="black"></path><path d="M101.929 17.4842V0.905948H104.288L113.411 13.1895L112.187 13.4342V0.905948H115.214V17.4842H112.833L103.843 5.11171L104.955 4.86693V17.4842H101.929Z" fill="black"></path><path d="M126.278 17.7513C125.091 17.7513 123.993 17.5362 122.985 17.1059C121.976 16.6757 121.093 16.0749 120.337 15.3035C119.58 14.532 118.987 13.6271 118.556 12.5886C118.141 11.5502 117.933 10.4153 117.933 9.18396C117.933 7.95265 118.134 6.81776 118.534 5.7793C118.949 4.726 119.528 3.82106 120.27 3.06446C121.026 2.29304 121.909 1.69963 122.918 1.28424C123.927 0.854026 125.024 0.638916 126.211 0.638916C127.398 0.638916 128.459 0.839191 129.393 1.23974C130.343 1.64029 131.144 2.17435 131.797 2.84194C132.449 3.49468 132.917 4.21419 133.199 5.00045L130.506 6.29111C130.194 5.43067 129.668 4.73342 128.926 4.19935C128.184 3.66529 127.279 3.39825 126.211 3.39825C125.173 3.39825 124.253 3.64303 123.452 4.13259C122.666 4.62215 122.05 5.29715 121.605 6.15759C121.175 7.01803 120.96 8.02682 120.96 9.18396C120.96 10.3411 121.182 11.3573 121.627 12.2326C122.087 13.093 122.718 13.768 123.519 14.2576C124.32 14.7471 125.24 14.9919 126.278 14.9919C127.124 14.9919 127.902 14.8287 128.615 14.5024C129.327 14.1612 129.898 13.6864 130.328 13.0782C130.758 12.4551 130.973 11.7208 130.973 10.8752V9.60676L132.353 10.8084H126.211V8.24935H134V9.9183C134 11.1941 133.785 12.3216 133.354 13.3007C132.924 14.2798 132.338 15.1032 131.596 15.7708C130.869 16.4235 130.046 16.9205 129.126 17.2617C128.207 17.5881 127.257 17.7513 126.278 17.7513Z" fill="black"></path><path d="M35.9191 40.004C35.0735 40.004 34.3095 39.8408 33.6271 39.5144C32.9595 39.1732 32.4254 38.7059 32.0249 38.1125C31.6391 37.5043 31.4463 36.7996 31.4463 35.9985C31.4463 35.3309 31.565 34.7449 31.8023 34.2405C32.0545 33.7213 32.3661 33.254 32.7369 32.8386C33.1078 32.4232 33.5084 32.0523 33.9386 31.726C34.3688 31.3996 34.7768 31.1029 35.1625 30.8359L36.0526 30.235C36.557 29.8938 37.0169 29.5452 37.4323 29.1892C37.8625 28.8331 38.2111 28.4474 38.4782 28.032C38.7452 27.6018 38.8787 27.1271 38.8787 26.6078C38.8787 25.9254 38.6488 25.3617 38.1889 24.9166C37.7438 24.4716 37.1949 24.2491 36.5422 24.2491C35.8597 24.2491 35.296 24.479 34.851 24.9389C34.4207 25.3839 34.2056 25.9477 34.2056 26.6301C34.2056 27.1048 34.3095 27.5573 34.5172 27.9875C34.7397 28.4177 35.0141 28.8183 35.3405 29.1892C35.6669 29.56 35.9933 29.9161 36.3196 30.2573L45.5545 39.737H43.5963L35.207 31.2364C34.8658 30.8804 34.5023 30.4798 34.1166 30.0348C33.7457 29.5749 33.4268 29.0705 33.1597 28.5216C32.8927 27.9578 32.7592 27.3422 32.7592 26.6746C32.7592 25.9328 32.9224 25.2801 33.2488 24.7164C33.59 24.1526 34.0424 23.7076 34.6062 23.3812C35.1847 23.0548 35.8301 22.8916 36.5422 22.8916C37.2246 22.8916 37.8477 23.0548 38.4114 23.3812C38.99 23.6927 39.4499 24.1304 39.7911 24.6941C40.1323 25.243 40.3029 25.8809 40.3029 26.6078C40.3029 27.3644 40.1249 28.032 39.7688 28.6106C39.4276 29.1743 38.9974 29.6713 38.4782 30.1015C37.9738 30.5317 37.4768 30.9175 36.9872 31.2587L36.1194 31.8372C35.5853 32.2229 35.0735 32.6161 34.5839 33.0166C34.1092 33.4023 33.7161 33.8326 33.4045 34.3073C33.1078 34.782 32.9595 35.3383 32.9595 35.9762C32.9595 36.807 33.2339 37.4598 33.7828 37.9345C34.3466 38.4092 35.0661 38.6466 35.9413 38.6466C36.5496 38.6466 37.0762 38.5427 37.5213 38.335C37.9812 38.1273 38.3817 37.8603 38.7229 37.5339C39.079 37.1927 39.3979 36.8293 39.6798 36.4436C39.9617 36.043 40.2213 35.6573 40.4586 35.2864L43.0177 31.4812H44.6867L41.727 35.9762C41.4897 36.3471 41.2004 36.7625 40.8592 37.2224C40.518 37.6823 40.1174 38.1273 39.6575 38.5576C39.2125 38.9729 38.6784 39.3216 38.0553 39.6034C37.4471 39.8705 36.735 40.004 35.9191 40.004Z" fill="black"></path><path d="M52.1542 39.737V23.1587H57.5171C59.149 23.1587 60.5583 23.4999 61.7451 24.1823C62.9468 24.8499 63.874 25.8067 64.5267 27.0529C65.1795 28.2842 65.5058 29.7455 65.5058 31.4367C65.5058 33.1131 65.1795 34.5743 64.5267 35.8205C63.874 37.0666 62.9468 38.0309 61.7451 38.7133C60.5583 39.3957 59.149 39.737 57.5171 39.737H52.1542ZM53.6006 38.4018H57.4948C58.8152 38.4018 59.9575 38.1125 60.9218 37.5339C61.9009 36.9554 62.6575 36.1468 63.1915 35.1084C63.7404 34.0551 64.0149 32.8312 64.0149 31.4367C64.0149 30.0273 63.7404 28.8034 63.1915 27.765C62.6575 26.7265 61.9009 25.9254 60.9218 25.3617C59.9426 24.7831 58.8003 24.4938 57.4948 24.4938H53.6006V38.4018Z" fill="black"></path><path d="M68.6916 39.737V23.1587H79.1504V24.4938H70.138V30.7469H78.7053V32.082H70.138V38.4018H79.1504V39.737H68.6916Z" fill="black"></path><path d="M87.724 40.004C86.6707 40.004 85.7212 39.8037 84.8756 39.4032C84.0448 39.0026 83.3476 38.476 82.7838 37.8232C82.2349 37.1705 81.8418 36.4658 81.6045 35.7092L82.8951 35.2419C83.3105 36.3694 83.9262 37.2298 84.7421 37.8232C85.5729 38.4166 86.5594 38.7133 87.7017 38.7133C88.4583 38.7133 89.1185 38.5872 89.6822 38.335C90.2608 38.0828 90.7132 37.7268 91.0396 37.2669C91.366 36.807 91.5292 36.2655 91.5292 35.6425C91.5292 34.782 91.2844 34.1144 90.7948 33.6397C90.3201 33.165 89.697 32.8238 88.9256 32.6161L85.8992 31.726C84.6679 31.3699 83.7555 30.7988 83.1621 30.0125C82.5836 29.2114 82.2943 28.3065 82.2943 27.2977C82.2943 26.4224 82.502 25.6584 82.9174 25.0056C83.3476 24.3381 83.9262 23.8188 84.6531 23.448C85.38 23.0771 86.2034 22.8916 87.1231 22.8916C88.0874 22.8916 88.9479 23.0771 89.7044 23.448C90.4759 23.804 91.1212 24.2787 91.6404 24.8721C92.1745 25.4507 92.5528 26.096 92.7753 26.8081L91.5069 27.2754C91.136 26.2518 90.5649 25.4804 89.7935 24.9611C89.022 24.4271 88.1393 24.16 87.1454 24.16C86.4926 24.16 85.9066 24.2861 85.3874 24.5383C84.8682 24.7905 84.4602 25.1466 84.1635 25.6065C83.8668 26.0664 83.7185 26.6078 83.7185 27.2309C83.7185 27.9875 83.9336 28.6328 84.3638 29.1669C84.794 29.701 85.5135 30.1238 86.5223 30.4353L89.2371 31.2364C90.424 31.5925 91.3363 32.1414 91.9742 32.8831C92.627 33.61 92.9533 34.5076 92.9533 35.5757C92.9533 36.451 92.7308 37.2224 92.2858 37.89C91.8407 38.5427 91.2176 39.062 90.4165 39.4477C89.6303 39.8185 88.7327 40.004 87.724 40.004Z" fill="black"></path><path d="M96.6379 39.737V23.1587H98.0843V39.737H96.6379Z" fill="black"></path><path d="M109.744 40.004C108.572 40.004 107.496 39.7963 106.517 39.3809C105.553 38.9507 104.715 38.3573 104.003 37.6007C103.29 36.8293 102.734 35.9243 102.334 34.8859C101.948 33.8474 101.755 32.7051 101.755 31.4589C101.755 30.2128 101.948 29.0705 102.334 28.032C102.734 26.9936 103.29 26.0886 104.003 25.3172C104.729 24.5458 105.575 23.9524 106.539 23.537C107.518 23.1068 108.587 22.8916 109.744 22.8916C110.886 22.8916 111.902 23.0919 112.792 23.4925C113.697 23.893 114.454 24.4048 115.062 25.0279C115.685 25.651 116.13 26.2963 116.397 26.9639L115.062 27.587C114.617 26.5633 113.935 25.7548 113.015 25.1614C112.11 24.5532 111.02 24.2491 109.744 24.2491C108.483 24.2491 107.355 24.5532 106.361 25.1614C105.367 25.7697 104.589 26.6153 104.025 27.6982C103.476 28.7664 103.201 30.0199 103.201 31.4589C103.201 32.8831 103.476 34.1367 104.025 35.2197C104.589 36.3026 105.36 37.1408 106.339 37.7342C107.333 38.3276 108.468 38.6243 109.744 38.6243C110.886 38.6243 111.91 38.3721 112.815 37.8677C113.734 37.3485 114.454 36.6512 114.973 35.776C115.507 34.8859 115.774 33.8697 115.774 32.7273V31.9485L116.42 32.6383H109.744V31.3477H117.221V32.5938C117.221 33.6323 117.028 34.604 116.642 35.5089C116.271 36.399 115.752 37.1853 115.084 37.8677C114.417 38.5353 113.623 39.062 112.703 39.4477C111.798 39.8185 110.812 40.004 109.744 40.004Z" fill="black"></path><path d="M120.673 39.737V23.1587H121.896L131.932 37.5562H131.465V23.1587H132.912V39.737H131.688L121.607 25.2504H122.119V39.737H120.673Z" fill="black"></path></g></g></svg>